<?xml version="1.0" encoding="UTF-8" standalone="no"?>
<!DOCTYPE svg PUBLIC "-//W3C//DTD SVG 1.1//EN" "http://www.w3.org/Graphics/SVG/1.1/DTD/svg11.dtd">
<svg width="100%" height="100%" viewBox="0 0 48 48" version="1.1" xmlns="http://www.w3.org/2000/svg" xmlns:xlink="http://www.w3.org/1999/xlink" xml:space="preserve" xmlns:serif="http://www.serif.com/" style="fill-rule:evenodd;clip-rule:evenodd;stroke-linejoin:round;stroke-miterlimit:2;">
    <g transform="matrix(1,0,0,1,-175,-383)">
        <g id="favicon" transform="matrix(0.0829016,0,0,0.0600751,290.399,403.065)">
            <rect x="-1392" y="-334" width="579" height="799" style="fill:none;"/>
            <clipPath id="_clip1">
                <rect x="-1392" y="-334" width="579" height="799"/>
            </clipPath>
            <g clip-path="url(#_clip1)">
                <g transform="matrix(12.0625,0,0,16.6458,-3502.94,-6709.35)">
                    <path d="M223,395L223,419C223,425.623 217.623,431 211,431L187,431C180.377,431 175,425.623 175,419L175,395C175,388.377 180.377,383 187,383L211,383C217.623,383 223,388.377 223,395Z" style="fill:white;"/>
                </g>
                <g transform="matrix(2.12978,0,0,2.93902,-2188.82,-1726.73)">
                    <g transform="matrix(0.500055,0,0,0.500055,181.54,486.322)">
                        <g transform="matrix(384,0,0,384,743.187,386.531)">
                        </g>
                        <text x="379.25px" y="386.531px" style="font-family:'Verdana-Bold', 'Verdana', sans-serif;font-weight:700;font-size:384px;">M</text>
                    </g>
                    <g transform="matrix(0.500055,0,0,0.500055,300.54,486.322)">
                        <clipPath id="_clip2">
                            <rect x="488.867" y="107.344" width="194.883" height="279.188"/>
                        </clipPath>
                        <g clip-path="url(#_clip2)">
                            <g transform="matrix(384,0,0,384,679.625,386.531)">
                            </g>
                            <text x="379.25px" y="386.531px" style="font-family:'Verdana-Bold', 'Verdana', sans-serif;font-weight:700;font-size:384px;">R</text>
                        </g>
                    </g>
                </g>
            </g>
        </g>
    </g>
</svg>
