<?xml version="1.0" encoding="UTF-8" standalone="no"?>
<!DOCTYPE svg PUBLIC "-//W3C//DTD SVG 1.1//EN" "http://www.w3.org/Graphics/SVG/1.1/DTD/svg11.dtd">
<svg width="100%" height="100%" viewBox="0 0 50 50" version="1.1" xmlns="http://www.w3.org/2000/svg" xmlns:xlink="http://www.w3.org/1999/xlink" xml:space="preserve" xmlns:serif="http://www.serif.com/" style="fill-rule:evenodd;clip-rule:evenodd;stroke-linejoin:round;stroke-miterlimit:2;">
    <g transform="matrix(1,0,0,1,2.84217e-14,-383)">
        <g id="Artboard1" transform="matrix(0.0863558,0,0,0.0625782,120.207,403.901)">
            <rect x="-1392" y="-334" width="579" height="799" style="fill:none;"/>
            <clipPath id="_clip1">
                <rect x="-1392" y="-334" width="579" height="799"/>
            </clipPath>
            <g clip-path="url(#_clip1)">
                <g transform="matrix(2.28445,0,0,3.15247,-2280.65,-1856.89)">
                    <g transform="matrix(0.500055,0,0,0.500055,181.54,486.322)">
                        <g transform="matrix(384,0,0,384,743.187,386.531)">
                        </g>
                        <text x="379.25px" y="386.531px" style="font-family:'Verdana-Bold', 'Verdana', sans-serif;font-weight:700;font-size:384px;fill:white;">M</text>
                    </g>
                    <g transform="matrix(0.500055,0,0,0.500055,300.54,486.322)">
                        <clipPath id="_clip2">
                            <rect x="488.867" y="107.344" width="194.883" height="279.188"/>
                        </clipPath>
                        <g clip-path="url(#_clip2)">
                            <g transform="matrix(384,0,0,384,679.625,386.531)">
                            </g>
                            <text x="379.25px" y="386.531px" style="font-family:'Verdana-Bold', 'Verdana', sans-serif;font-weight:700;font-size:384px;fill:white;">R</text>
                        </g>
                    </g>
                </g>
            </g>
        </g>
    </g>
</svg>
